name ./resultDataOpenSim/trcMotMarkerGrf/sub09/grf-02-06.mot
datacolumns 19
datarows 25
range 0.96800000 1.06400000
endheader

                time	     ground_force_vx	     ground_force_vy	     ground_force_vz	     ground_force_px	     ground_force_py	     ground_force_pz	   l_ground_force_vx	   l_ground_force_vy	   l_ground_force_vz	   l_ground_force_px	   l_ground_force_py	   l_ground_force_pz	     ground_torque_x	     ground_torque_y	     ground_torque_z	   l_ground_torque_x	   l_ground_torque_y	   l_ground_torque_z	
          0.96800000	          0.00000000	          0.00000000	          0.00000000	          0.00000000	          0.00000000	          0.00000000	         17.47383965	        463.43924861	          5.75997249	          0.13401365	         -0.02500000	          0.02467992	          0.00000000	          0.00000000	          0.00000000	          0.00000000	         -5.44033273	          0.00000000	
          0.97200000	          0.00000000	          0.00000000	          0.00000000	          0.00000000	          0.00000000	          0.00000000	         23.01349923	        479.21619965	          5.75082227	          0.13440101	         -0.02500000	          0.02478399	          0.00000000	          0.00000000	          0.00000000	          0.00000000	         -5.75747924	          0.00000000	
          0.97600000	          0.00000000	          0.00000000	          0.00000000	          0.00000000	          0.00000000	          0.00000000	         28.42420626	        495.48155263	          6.04112143	          0.13468089	         -0.02500000	          0.02481073	          0.00000000	          0.00000000	          0.00000000	          0.00000000	         -6.04103754	          0.00000000	
          0.98000000	          0.00000000	          0.00000000	          0.00000000	          0.00000000	          0.00000000	          0.00000000	         33.61865828	        512.13502901	          6.61862279	          0.13484162	         -0.02500000	          0.02475038	          0.00000000	          0.00000000	          0.00000000	          0.00000000	         -6.28594957	          0.00000000	
          0.98400000	          0.00000000	          0.00000000	          0.00000000	          0.00000000	          0.00000000	          0.00000000	         38.54065071	        529.19093561	          7.50923099	          0.13493107	         -0.02500000	          0.02462654	          0.00000000	          0.00000000	          0.00000000	          0.00000000	         -6.48796350	          0.00000000	
          0.98800000	          0.00000000	          0.00000000	          0.00000000	          0.00000000	          0.00000000	          0.00000000	         43.15833112	        546.73654577	          8.75314295	          0.13499172	         -0.02500000	          0.02446959	          0.00000000	          0.00000000	          0.00000000	          0.00000000	         -6.64420266	          0.00000000	
          0.99200000	          0.00000000	          0.00000000	          0.00000000	          0.00000000	          0.00000000	          0.00000000	         47.47243929	        564.78816973	         10.36169480	          0.13502804	         -0.02500000	          0.02429231	          0.00000000	          0.00000000	          0.00000000	          0.00000000	         -6.75384001	          0.00000000	
          0.99600000	          0.00000000	          0.00000000	          0.00000000	          0.00000000	          0.00000000	          0.00000000	         51.51794803	        583.19662566	         12.30628459	          0.13502528	         -0.02500000	          0.02411039	          0.00000000	          0.00000000	          0.00000000	          0.00000000	         -6.81847078	          0.00000000	
          1.00000000	          0.00000000	          0.00000000	          0.00000000	          0.00000000	          0.00000000	          0.00000000	         55.36247582	        601.70497875	         14.52677849	          0.13501007	         -0.02500000	          0.02394240	          0.00000000	          0.00000000	          0.00000000	          0.00000000	         -6.84201806	          0.00000000	
          1.00400000	          0.00000000	          0.00000000	          0.00000000	          0.00000000	          0.00000000	          0.00000000	         59.10157991	        620.07098299	         16.93371310	          0.13501659	         -0.02500000	          0.02378773	          0.00000000	          0.00000000	          0.00000000	          0.00000000	         -6.83021910	          0.00000000	
          1.00800000	          0.00000000	          0.00000000	          0.00000000	          0.00000000	          0.00000000	          0.00000000	         62.83639551	        638.11385026	         19.42406854	          0.13504500	         -0.02500000	          0.02363844	          0.00000000	          0.00000000	          0.00000000	          0.00000000	         -6.78980131	          0.00000000	
          1.01200000	          0.00000000	          0.00000000	          0.00000000	          0.00000000	          0.00000000	          0.00000000	         66.65724997	        655.69942084	         21.91348491	          0.13512994	         -0.02500000	          0.02349612	          0.00000000	          0.00000000	          0.00000000	          0.00000000	         -6.72753219	          0.00000000	
          1.01600000	          0.00000000	          0.00000000	          0.00000000	          0.00000000	          0.00000000	          0.00000000	         70.65230122	        672.74600532	         24.35220866	          0.13529761	         -0.02500000	          0.02338310	          0.00000000	          0.00000000	          0.00000000	          0.00000000	         -6.64942156	          0.00000000	
          1.02000000	          0.00000000	          0.00000000	          0.00000000	          0.00000000	          0.00000000	          0.00000000	         74.90473834	        689.22198042	         26.71232767	          0.13553371	         -0.02500000	          0.02330934	          0.00000000	          0.00000000	          0.00000000	          0.00000000	         -6.56030391	          0.00000000	
          1.02400000	          0.00000000	          0.00000000	          0.00000000	          0.00000000	          0.00000000	          0.00000000	         79.46171416	        705.10004653	         28.96961331	          0.13581271	         -0.02500000	          0.02326427	          0.00000000	          0.00000000	          0.00000000	          0.00000000	         -6.46382620	          0.00000000	
          1.02800000	          0.00000000	          0.00000000	          0.00000000	          0.00000000	          0.00000000	          0.00000000	         84.31285858	        720.30469677	         31.09734671	          0.13613574	         -0.02500000	          0.02324000	          0.00000000	          0.00000000	          0.00000000	          0.00000000	         -6.36268641	          0.00000000	
          1.03200000	          0.00000000	          0.00000000	          0.00000000	          0.00000000	          0.00000000	          0.00000000	         89.39463749	        734.71023947	         33.06447764	          0.13653889	         -0.02500000	          0.02324590	          0.00000000	          0.00000000	          0.00000000	          0.00000000	         -6.25893357	          0.00000000	
          1.03600000	          0.00000000	          0.00000000	          0.00000000	          0.00000000	          0.00000000	          0.00000000	         94.60406969	        748.20288025	         34.83363688	          0.13703321	         -0.02500000	          0.02329967	          0.00000000	          0.00000000	          0.00000000	          0.00000000	         -6.15419802	          0.00000000	
          1.04000000	          0.00000000	          0.00000000	          0.00000000	          0.00000000	          0.00000000	          0.00000000	         99.81942525	        760.72784327	         36.35801867	          0.13757831	         -0.02500000	          0.02340403	          0.00000000	          0.00000000	          0.00000000	          0.00000000	         -6.04976361	          0.00000000	
          1.04400000	          0.00000000	          0.00000000	          0.00000000	          0.00000000	          0.00000000	          0.00000000	        104.92294711	        772.26292924	         37.57566264	          0.13811382	         -0.02500000	          0.02354218	          0.00000000	          0.00000000	          0.00000000	          0.00000000	         -5.94641194	          0.00000000	
          1.04800000	          0.00000000	          0.00000000	          0.00000000	          0.00000000	          0.00000000	          0.00000000	        109.81255896	        782.76744727	         38.41775140	          0.13858355	         -0.02500000	          0.02369351	          0.00000000	          0.00000000	          0.00000000	          0.00000000	         -5.84404089	          0.00000000	
          1.05200000	          0.00000000	          0.00000000	          0.00000000	          0.00000000	          0.00000000	          0.00000000	        114.40760132	        792.17113229	         38.83866512	          0.13895266	         -0.02500000	          0.02385044	          0.00000000	          0.00000000	          0.00000000	          0.00000000	         -5.74121266	          0.00000000	
          1.05600000	          0.00000000	          0.00000000	          0.00000000	          0.00000000	          0.00000000	          0.00000000	        118.65506038	        800.38254758	         38.83913831	          0.13923102	         -0.02500000	          0.02402136	          0.00000000	          0.00000000	          0.00000000	          0.00000000	         -5.63490958	          0.00000000	
          1.06000000	          0.00000000	          0.00000000	          0.00000000	          0.00000000	          0.00000000	          0.00000000	        122.53799488	        807.25803554	         38.46267487	          0.13948510	         -0.02500000	          0.02421863	          0.00000000	          0.00000000	          0.00000000	          0.00000000	         -5.52071714	          0.00000000	
          1.06400000	          0.00000000	          0.00000000	          0.00000000	          0.00000000	          0.00000000	          0.00000000	        126.08898559	        812.57154281	         37.78182408	          0.13980694	         -0.02500000	          0.02444119	          0.00000000	          0.00000000	          0.00000000	          0.00000000	         -5.39345315	          0.00000000	
